<svg width="1200" height="628" viewBox="0 0 1200 628" fill="none" xmlns="http://www.w3.org/2000/svg">
<rect width="1200" height="628" fill="black"/>
<path d="M427.68 261.84C429.12 264.48 430.76 267.76 432.6 271.68C434.52 275.52 436.48 279.72 438.48 284.28C440.56 288.76 442.6 293.36 444.6 298.08C446.6 302.8 448.48 307.24 450.24 311.4C452 307.24 453.88 302.8 455.88 298.08C457.88 293.36 459.88 288.76 461.88 284.28C463.96 279.72 465.92 275.52 467.76 271.68C469.68 267.76 471.36 264.48 472.8 261.84H489.84C490.64 267.36 491.36 273.56 492 280.44C492.72 287.24 493.32 294.36 493.8 301.8C494.36 309.16 494.84 316.56 495.24 324C495.72 331.44 496.12 338.44 496.44 345H478.2C477.96 336.92 477.64 328.12 477.24 318.6C476.84 309.08 476.24 299.48 475.44 289.8C474 293.16 472.4 296.88 470.64 300.96C468.88 305.04 467.12 309.12 465.36 313.2C463.68 317.28 462.04 321.2 460.44 324.96C458.84 328.64 457.48 331.8 456.36 334.44H443.28C442.16 331.8 440.8 328.64 439.2 324.96C437.6 321.2 435.92 317.28 434.16 313.2C432.48 309.12 430.76 305.04 429 300.96C427.24 296.88 425.64 293.16 424.2 289.8C423.4 299.48 422.8 309.08 422.4 318.6C422 328.12 421.68 336.92 421.44 345H403.2C403.52 338.44 403.88 331.44 404.28 324C404.76 316.56 405.24 309.16 405.72 301.8C406.28 294.36 406.88 287.24 407.52 280.44C408.24 273.56 409 267.36 409.8 261.84H427.68ZM565.975 342.84C562.935 343.72 559.015 344.52 554.215 345.24C549.415 346.04 544.375 346.44 539.095 346.44C533.735 346.44 529.255 345.72 525.655 344.28C522.135 342.84 519.335 340.84 517.255 338.28C515.175 335.64 513.695 332.52 512.815 328.92C511.935 325.32 511.495 321.36 511.495 317.04V281.88H529.375V314.88C529.375 320.64 530.135 324.8 531.655 327.36C533.175 329.92 536.015 331.2 540.175 331.2C541.455 331.2 542.815 331.16 544.255 331.08C545.695 330.92 546.975 330.76 548.095 330.6V281.88H565.975V342.84ZM582.759 284.04C585.799 283.16 589.719 282.36 594.519 281.64C599.319 280.84 604.359 280.44 609.639 280.44C614.999 280.44 619.439 281.16 622.959 282.6C626.559 283.96 629.399 285.92 631.479 288.48C633.559 291.04 635.039 294.08 635.919 297.6C636.799 301.12 637.239 305.04 637.239 309.36V345H619.359V311.52C619.359 305.76 618.599 301.68 617.079 299.28C615.559 296.88 612.719 295.68 608.559 295.68C607.279 295.68 605.919 295.76 604.479 295.92C603.039 296 601.759 296.12 600.639 296.28V345H582.759V284.04ZM677.543 332.52C679.303 332.52 680.983 332.48 682.583 332.4C684.183 332.32 685.463 332.2 686.423 332.04V318.48C685.703 318.32 684.623 318.16 683.183 318C681.743 317.84 680.423 317.76 679.223 317.76C677.543 317.76 675.943 317.88 674.423 318.12C672.983 318.28 671.703 318.64 670.583 319.2C669.463 319.76 668.583 320.52 667.943 321.48C667.303 322.44 666.983 323.64 666.983 325.08C666.983 327.88 667.903 329.84 669.743 330.96C671.663 332 674.263 332.52 677.543 332.52ZM676.103 280.2C681.383 280.2 685.783 280.8 689.303 282C692.823 283.2 695.623 284.92 697.703 287.16C699.863 289.4 701.383 292.12 702.263 295.32C703.143 298.52 703.583 302.08 703.583 306V343.2C701.023 343.76 697.463 344.4 692.903 345.12C688.343 345.92 682.823 346.32 676.343 346.32C672.263 346.32 668.543 345.96 665.183 345.24C661.903 344.52 659.063 343.36 656.663 341.76C654.263 340.08 652.423 337.92 651.143 335.28C649.863 332.64 649.223 329.4 649.223 325.56C649.223 321.88 649.943 318.76 651.383 316.2C652.903 313.64 654.903 311.6 657.383 310.08C659.863 308.56 662.703 307.48 665.903 306.84C669.103 306.12 672.423 305.76 675.863 305.76C678.183 305.76 680.223 305.88 681.983 306.12C683.823 306.28 685.303 306.52 686.423 306.84V305.16C686.423 302.12 685.503 299.68 683.663 297.84C681.823 296 678.623 295.08 674.063 295.08C671.023 295.08 668.023 295.32 665.063 295.8C662.103 296.2 659.543 296.8 657.383 297.6L655.103 283.2C656.143 282.88 657.423 282.56 658.943 282.24C660.543 281.84 662.263 281.52 664.103 281.28C665.943 280.96 667.863 280.72 669.863 280.56C671.943 280.32 674.023 280.2 676.103 280.2ZM805.58 270.72C806.54 274 807.58 277.72 808.7 281.88C809.9 285.96 811.14 290.2 812.42 294.6C813.78 299 815.14 303.4 816.5 307.8C817.86 312.2 819.18 316.28 820.46 320.04C821.5 315.96 822.54 311.52 823.58 306.72C824.7 301.92 825.74 296.96 826.7 291.84C827.66 286.72 828.58 281.64 829.46 276.6C830.42 271.48 831.3 266.56 832.1 261.84H851.54C848.74 275.76 845.5 289.88 841.82 304.2C838.22 318.52 834.3 332.12 830.06 345H812.9C810.1 337.32 807.38 329.28 804.74 320.88C802.1 312.4 799.5 303.92 796.94 295.44C794.38 303.92 791.82 312.4 789.26 320.88C786.7 329.28 784.02 337.32 781.22 345H764.06C759.82 332.12 755.86 318.52 752.18 304.2C748.58 289.88 745.38 275.76 742.58 261.84H762.86C763.66 266.56 764.54 271.48 765.5 276.6C766.46 281.64 767.46 286.72 768.5 291.84C769.54 296.96 770.58 301.92 771.62 306.72C772.74 311.52 773.86 315.96 774.98 320.04C776.42 316.12 777.82 311.96 779.18 307.56C780.54 303.16 781.86 298.76 783.14 294.36C784.42 289.96 785.58 285.72 786.62 281.64C787.74 277.56 788.74 273.92 789.62 270.72H805.58ZM883.09 332.52C884.85 332.52 886.53 332.48 888.13 332.4C889.73 332.32 891.01 332.2 891.97 332.04V318.48C891.25 318.32 890.17 318.16 888.73 318C887.29 317.84 885.97 317.76 884.77 317.76C883.09 317.76 881.49 317.88 879.97 318.12C878.53 318.28 877.25 318.64 876.13 319.2C875.01 319.76 874.13 320.52 873.49 321.48C872.85 322.44 872.53 323.64 872.53 325.08C872.53 327.88 873.45 329.84 875.29 330.96C877.21 332 879.81 332.52 883.09 332.52ZM881.65 280.2C886.93 280.2 891.33 280.8 894.85 282C898.37 283.2 901.17 284.92 903.25 287.16C905.41 289.4 906.93 292.12 907.81 295.32C908.69 298.52 909.13 302.08 909.13 306V343.2C906.57 343.76 903.01 344.4 898.45 345.12C893.89 345.92 888.37 346.32 881.89 346.32C877.81 346.32 874.09 345.96 870.73 345.24C867.45 344.52 864.61 343.36 862.21 341.76C859.81 340.08 857.97 337.92 856.69 335.28C855.41 332.64 854.77 329.4 854.77 325.56C854.77 321.88 855.49 318.76 856.93 316.2C858.45 313.64 860.45 311.6 862.93 310.08C865.41 308.56 868.25 307.48 871.45 306.84C874.65 306.12 877.97 305.76 881.41 305.76C883.73 305.76 885.77 305.88 887.53 306.12C889.37 306.28 890.85 306.52 891.97 306.84V305.16C891.97 302.12 891.05 299.68 889.21 297.84C887.37 296 884.17 295.08 879.61 295.08C876.57 295.08 873.57 295.32 870.61 295.8C867.65 296.2 865.09 296.8 862.93 297.6L860.65 283.2C861.69 282.88 862.97 282.56 864.49 282.24C866.09 281.84 867.81 281.52 869.65 281.28C871.49 280.96 873.41 280.72 875.41 280.56C877.49 280.32 879.57 280.2 881.65 280.2ZM950.498 346.2C945.298 346.12 941.058 345.56 937.778 344.52C934.578 343.48 932.018 342.04 930.098 340.2C928.258 338.28 926.978 336 926.258 333.36C925.618 330.64 925.298 327.6 925.298 324.24V254.76L943.178 251.88V320.64C943.178 322.24 943.298 323.68 943.538 324.96C943.778 326.24 944.218 327.32 944.858 328.2C945.578 329.08 946.578 329.8 947.858 330.36C949.138 330.92 950.858 331.28 953.018 331.44L950.498 346.2ZM988.467 346.2C983.267 346.12 979.027 345.56 975.747 344.52C972.547 343.48 969.987 342.04 968.067 340.2C966.227 338.28 964.947 336 964.227 333.36C963.587 330.64 963.267 327.6 963.267 324.24V254.76L981.147 251.88V320.64C981.147 322.24 981.267 323.68 981.507 324.96C981.747 326.24 982.187 327.32 982.827 328.2C983.547 329.08 984.547 329.8 985.827 330.36C987.107 330.92 988.827 331.28 990.987 331.44L988.467 346.2ZM998.236 313.92C998.236 308.32 999.076 303.44 1000.76 299.28C1002.52 295.04 1004.8 291.52 1007.6 288.72C1010.4 285.92 1013.6 283.8 1017.2 282.36C1020.88 280.92 1024.64 280.2 1028.48 280.2C1037.44 280.2 1044.52 282.96 1049.72 288.48C1054.92 293.92 1057.52 301.96 1057.52 312.6C1057.52 313.64 1057.48 314.8 1057.4 316.08C1057.32 317.28 1057.24 318.36 1057.16 319.32H1016.6C1017 323 1018.72 325.92 1021.76 328.08C1024.8 330.24 1028.88 331.32 1034 331.32C1037.28 331.32 1040.48 331.04 1043.6 330.48C1046.8 329.84 1049.4 329.08 1051.4 328.2L1053.8 342.72C1052.84 343.2 1051.56 343.68 1049.96 344.16C1048.36 344.64 1046.56 345.04 1044.56 345.36C1042.64 345.76 1040.56 346.08 1038.32 346.32C1036.08 346.56 1033.84 346.68 1031.6 346.68C1025.92 346.68 1020.96 345.84 1016.72 344.16C1012.56 342.48 1009.08 340.2 1006.28 337.32C1003.56 334.36 1001.52 330.88 1000.16 326.88C998.876 322.88 998.236 318.56 998.236 313.92ZM1040.24 307.08C1040.16 305.56 1039.88 304.08 1039.4 302.64C1039 301.2 1038.32 299.92 1037.36 298.8C1036.48 297.68 1035.32 296.76 1033.88 296.04C1032.52 295.32 1030.8 294.96 1028.72 294.96C1026.72 294.96 1025 295.32 1023.56 296.04C1022.12 296.68 1020.92 297.56 1019.96 298.68C1019 299.8 1018.24 301.12 1017.68 302.64C1017.2 304.08 1016.84 305.56 1016.6 307.08H1040.24ZM1070.71 266.16L1088.59 263.28V281.88H1110.07V296.76H1088.59V318.96C1088.59 322.72 1089.23 325.72 1090.51 327.96C1091.87 330.2 1094.55 331.32 1098.55 331.32C1100.47 331.32 1102.43 331.16 1104.43 330.84C1106.51 330.44 1108.39 329.92 1110.07 329.28L1112.59 343.2C1110.43 344.08 1108.03 344.84 1105.39 345.48C1102.75 346.12 1099.51 346.44 1095.67 346.44C1090.79 346.44 1086.75 345.8 1083.55 344.52C1080.35 343.16 1077.79 341.32 1075.87 339C1073.95 336.6 1072.59 333.72 1071.79 330.36C1071.07 327 1070.71 323.28 1070.71 319.2V266.16Z" fill="white"/>
<path d="M122.994 254.888L235.045 195.489L347.095 254.888V372.612L235.045 432.011L122.994 372.612V254.888Z" stroke="#0BC91F" stroke-width="15"/>
<path d="M235.045 257.277L287.212 285.514V341.986L235.045 370.223L182.877 341.986V285.514L235.045 257.277Z" fill="#0BC91F"/>
</svg>
